# xmcd
#
# Track frame offsets:
#	150
#	24010
#	43976
#	63449
#	85844
#	104000
#	117748
#	132201
#	144449
#	165202
#	188467
#
# Disc length: 2691 seconds
#
# Revision: 3
# Processed by: cddbd v1.5.2PL0 Copyright (c) Steve Scherf et al.
# Submitted via: EasyCDDAExtractor 16.1.0.1
#
DISCID=8d0a810b
DTITLE=Silverchair - Frogstomp
DYEAR=1995
DGENRE=Blues
TTITLE0=Israel's Son
TTITLE1=Tomorrow
TTITLE2=Faultline
TTITLE3=Pure Massacre
TTITLE4=Shade
TTITLE5=Leave Me Out
TTITLE6=Suicidal Dreams
TTITLE7=Madman
TTITLE8=Undecided
TTITLE9=Cicada
TTITLE10=Findaway
EXTD=
EXTT0=
EXTT1=
EXTT2=
EXTT3=
EXTT4=
EXTT5=
EXTT6=
EXTT7=
EXTT8=
EXTT9=
EXTT10=
PLAYORDER=
